<svg id="a" xmlns="http://www.w3.org/2000/svg" width="299.34" height="44.53"><defs><style>.b{fill:#0c0e10}</style></defs><path class="b" d="M75.9 27.89c0 .98-.2 1.84-.59 2.58-.39.74-.93 1.36-1.62 1.86-.69.5-1.48.88-2.38 1.14-.9.26-1.87.39-2.89.39H57.74V10.67h11.89c.81 0 1.54.17 2.19.52s1.21.8 1.67 1.36c.46.56.81 1.19 1.06 1.89.25.71.38 1.42.38 2.14 0 1.13-.28 2.19-.85 3.18-.57.99-1.39 1.73-2.48 2.21 1.33.39 2.38 1.09 3.15 2.11.77 1.01 1.16 2.28 1.16 3.81zM62.25 14.53v5.85h5.48c.76 0 1.41-.26 1.94-.78s.8-1.24.8-2.16-.25-1.6-.74-2.12-1.09-.78-1.81-.78h-5.68zm9.11 12.51c0-.41-.07-.81-.21-1.19-.14-.38-.33-.71-.57-1-.24-.28-.52-.51-.85-.67a2.45 2.45 0 00-1.08-.25h-6.4v6.11h6.17a3 3 0 001.16-.23c.36-.15.67-.36.93-.64a3.109 3.109 0 00.85-2.14zm7.96 6.82V10.7h4.51v23.16h-4.51zm25.64-19.24H98.1v19.24h-4.51V14.62H86.7v-3.95h18.25v3.95zm21.82 19.24V18.51l-5.98 11.43h-2.45l-5.98-11.43v15.35h-4.51V10.67h4.83l6.86 13.2 6.93-13.2h4.8v23.19h-4.51zm18.64.17c-1.63 0-3.12-.33-4.48-1s-2.51-1.55-3.48-2.65c-.97-1.1-1.72-2.36-2.24-3.77-.52-1.42-.78-2.86-.78-4.34s.28-3.03.83-4.44c.56-1.42 1.33-2.67 2.32-3.76s2.16-1.95 3.51-2.6c1.35-.64 2.82-.96 4.41-.96s3.12.34 4.48 1.03c1.35.69 2.5 1.58 3.46 2.69.96 1.11 1.7 2.37 2.22 3.79s.78 2.85.78 4.31c0 1.55-.28 3.02-.83 4.43s-1.32 2.65-2.3 3.72-2.14 1.94-3.5 2.58c-1.35.64-2.82.96-4.41.96zm-6.43-11.76c0 1 .15 1.97.44 2.91.29.94.72 1.76 1.27 2.48a6.3 6.3 0 002.04 1.73c.81.44 1.72.65 2.74.65s1.96-.22 2.76-.67 1.46-1.04 2.01-1.78c.54-.74.96-1.57 1.24-2.5.28-.92.42-1.87.42-2.83s-.15-1.97-.46-2.91c-.31-.94-.73-1.76-1.29-2.48s-1.23-1.29-2.03-1.72c-.79-.42-1.69-.64-2.69-.64s-1.97.22-2.76.67-1.47 1.03-2.02 1.76c-.56.73-.97 1.56-1.26 2.48-.28.93-.43 1.87-.43 2.82zm39.41 11.59V10.7h4.51v23.16h-4.51zM191.73 19v14.86h-4.51V10.67h3.5l12.09 15.22V10.7h4.51v23.16h-3.66L191.74 19zm-20.17-8.3l-5.28 14.93-5.34-14.93h-4.64l8.71 22.16c.48 1.22 2.21 1.21 2.68 0l8.53-22.15h-4.65zM15.79 0v10.25l15.9 11.1c.64.44.64 1.39 0 1.83l-15.9 11.1v10.25l30.3-21.15c.77-.54.77-1.69 0-2.23L15.79 0z"/><path class="b" d="M6.86 7.45v7.87l8.63 6.03c.63.44.63 1.38 0 1.82L6.86 29.2v7.87l19.62-13.7c.77-.54.77-1.69 0-2.23L6.86 7.45z"/><path class="b" d="M0 13.97v4.96l3.48 2.43c.64.44.64 1.39 0 1.83L0 25.62v4.96l10.3-7.19c.77-.54.77-1.68 0-2.22L0 13.97z"/><g><path class="b" d="M234.92 34.04h-7.19V10.75h7.51c2.26 0 4.19.46 5.8 1.39 1.61.93 2.84 2.26 3.7 3.99s1.29 3.81 1.29 6.22-.43 4.51-1.3 6.26c-.86 1.75-2.12 3.09-3.78 4.03-1.65.94-3.66 1.4-6.03 1.4zm-4.37-2.5h4.19c1.93 0 3.52-.37 4.79-1.12 1.27-.74 2.21-1.8 2.83-3.17.62-1.37.93-3.01.93-4.9s-.31-3.5-.92-4.86-1.53-2.41-2.75-3.14-2.74-1.1-4.56-1.1h-4.5v18.29zm26.71 2.87c-1.58 0-2.96-.37-4.15-1.13-1.19-.75-2.11-1.8-2.78-3.15-.66-1.35-.99-2.93-.99-4.73s.33-3.41.99-4.77 1.59-2.41 2.78-3.16c1.19-.75 2.57-1.13 4.15-1.13s2.96.38 4.15 1.13 2.11 1.81 2.78 3.16c.66 1.36.99 2.95.99 4.77s-.33 3.38-.99 4.73c-.66 1.35-1.59 2.4-2.78 3.15-1.19.75-2.57 1.13-4.15 1.13zm0-2.41c1.2 0 2.18-.31 2.96-.92.77-.62 1.35-1.42 1.72-2.42s.56-2.09.56-3.25-.19-2.26-.56-3.27-.94-1.82-1.72-2.45-1.76-.93-2.96-.93-2.18.31-2.96.93c-.77.62-1.35 1.44-1.72 2.45s-.56 2.1-.56 3.27.19 2.25.56 3.25.94 1.81 1.72 2.42c.77.61 1.76.92 2.96.92zm18.83 2.41c-1.64 0-3.05-.39-4.23-1.16s-2.09-1.84-2.73-3.2c-.64-1.36-.96-2.91-.96-4.65s.33-3.34.98-4.7 1.57-2.43 2.75-3.2 2.56-1.15 4.13-1.15c1.23 0 2.34.23 3.32.68.99.46 1.79 1.09 2.42 1.91s1.02 1.77 1.17 2.87h-2.68c-.21-.8-.66-1.5-1.36-2.12-.7-.62-1.64-.93-2.83-.93-1.05 0-1.96.27-2.75.81-.78.54-1.4 1.3-1.83 2.29s-.65 2.13-.65 3.45.21 2.53.64 3.53 1.03 1.78 1.82 2.33c.78.55 1.71.83 2.77.83.7 0 1.33-.12 1.9-.36.57-.24 1.05-.59 1.44-1.05.39-.45.67-1 .84-1.64h2.68a6.131 6.131 0 01-1.12 2.78c-.6.82-1.38 1.48-2.35 1.96-.97.48-2.11.72-3.4.72zm22.93-13.93l-2.41.68c-.15-.4-.37-.79-.67-1.18-.29-.38-.69-.7-1.19-.95s-1.14-.38-1.92-.38c-1.07 0-1.96.24-2.67.73s-1.06 1.11-1.06 1.86c0 .67.24 1.19.73 1.58.48.39 1.24.71 2.28.97l2.59.64c1.56.38 2.73.96 3.49 1.74.77.78 1.15 1.78 1.15 3 0 1-.29 1.9-.86 2.68-.57.79-1.37 1.41-2.4 1.87-1.02.45-2.21.68-3.57.68-1.78 0-3.26-.39-4.43-1.16s-1.91-1.9-2.22-3.39l2.55-.64c.24.94.7 1.65 1.38 2.12s1.57.71 2.67.71c1.25 0 2.25-.27 2.99-.8.74-.53 1.11-1.18 1.11-1.93 0-.61-.21-1.12-.64-1.53-.43-.41-1.08-.72-1.96-.93l-2.91-.68c-1.6-.38-2.77-.97-3.52-1.77s-1.12-1.8-1.12-3.01c0-.99.28-1.86.84-2.62.56-.76 1.32-1.35 2.29-1.79s2.06-.65 3.29-.65c1.73 0 3.09.38 4.08 1.14.99.76 1.69 1.76 2.11 3z"/></g></svg>