<svg xmlns="http://www.w3.org/2000/svg" width="16" height="16" viewBox="0 0 16 16" fill="none"><path d="M5.74854 1V4.23077L10.646 7.71795C10.8419 7.8718 10.8419 8.17949 10.646 8.28205L5.74854 11.7692V15L15.1028 8.33333C15.3477 8.17949 15.3477 7.82051 15.1028 7.61538L5.74854 1Z" fill="#006AED"/><path d="M2.95703 3.35889V5.87171L5.65066 7.76914C5.84656 7.92299 5.84656 8.23068 5.65066 8.33325L2.95703 10.2307V12.7435L9.02995 8.43581C9.27482 8.28196 9.27482 7.92299 9.02995 7.71786L2.95703 3.35889Z" fill="#006AED"/><path d="M0.851074 5.41016V6.9999L1.92853 7.76913C2.12443 7.92298 2.12443 8.23067 1.92853 8.33323L0.851074 9.10246V10.6922L4.03446 8.4358C4.27933 8.28195 4.27933 7.92298 4.03446 7.71785L0.851074 5.41016Z" fill="#006AED"/></svg>